<!-- Generator: Adobe Illustrator 18.0.0, SVG Export Plug-In  -->
<svg version="1.1"
	 xmlns="http://www.w3.org/2000/svg" xmlns:xlink="http://www.w3.org/1999/xlink" xmlns:a="http://ns.adobe.com/AdobeSVGViewerExtensions/3.0/"
	 x="0px" y="0px" width="12.5px" height="12.5px" viewBox="0 0 12.5 12.5" enable-background="new 0 0 12.5 12.5"
	 xml:space="preserve">
<defs>
</defs>
<g>
	<path fill="#F4BA00" d="M12.5,9.8c0-3.5-3.1-2.7-3.1-5.5c0-0.2,0-0.4-0.1-0.6C9.1,2.3,8.2,1.2,7,0.9c0,0,0-0.1,0-0.1
		C7,0.3,6.7,0,6.3,0S5.5,0.3,5.5,0.7c0,0.1,0,0.1,0,0.1C4.2,1.3,3.2,2.6,3.1,4.2c0,0,0,0,0,0.1C3.1,7,0,6.3,0,9.8
		c0,0.9,2.1,1.7,4.9,1.9c0.3,0.5,0.8,0.8,1.4,0.8s1.1-0.3,1.4-0.8C10.4,11.5,12.5,10.7,12.5,9.8C12.5,9.8,12.5,9.8,12.5,9.8
		L12.5,9.8z M10.1,10.5c-0.7,0.2-1.4,0.3-2.3,0.4C7.8,10,7.1,9.4,6.3,9.4S4.8,10,4.7,10.8c-0.8-0.1-1.6-0.2-2.3-0.4
		c-0.9-0.2-1.3-0.5-1.5-0.7c0.2-0.1,0.6-0.4,1.5-0.7c1.1-0.3,2.4-0.4,3.8-0.4S9,8.8,10.1,9.1c0.9,0.2,1.3,0.5,1.5,0.7
		C11.5,9.9,11,10.2,10.1,10.5L10.1,10.5z"/>
</g>
</svg>
