<!-- Generator: Adobe Illustrator 18.0.0, SVG Export Plug-In  -->
<svg version="1.1"
	 xmlns="http://www.w3.org/2000/svg" xmlns:xlink="http://www.w3.org/1999/xlink" xmlns:a="http://ns.adobe.com/AdobeSVGViewerExtensions/3.0/"
	 x="0px" y="0px" width="16.6px" height="12.4px" viewBox="0 0 16.6 12.4" enable-background="new 0 0 16.6 12.4"
	 xml:space="preserve">
<defs>
</defs>
<g>
	<rect x="0.8" y="0.8" fill="#FFFFFF" width="12.8" height="10.9"/>
	<g>
		<path fill="#0E88AD" d="M14.5,2.1V0H0v11.4c0,0.6,0.5,1,1,1h14c0.9,0,1.6-0.7,1.6-1.6V2.1H14.5z M13.5,11.4H1V1h12.4V11.4z
			 M2.1,3.1h10.4v1H2.1V3.1z M8.3,5.2h4.1v1H8.3V5.2z M8.3,7.3h4.1v1H8.3V7.3z M8.3,9.3h3.1v1H8.3V9.3z M2.1,5.2h5.2v5.2H2.1V5.2z"
			/>
		<rect x="2.1" y="5.2" fill="#0FB753" width="5.2" height="5.2"/>
		<rect x="2.1" y="3.1" fill="#084C84" width="10.4" height="1"/>
		<rect x="8.3" y="5.2" fill="#BFBFBF" width="4.1" height="1"/>
		<rect x="8.3" y="7.3" fill="#BFBFBF" width="4.1" height="1"/>
		<rect x="8.3" y="9.3" fill="#BFBFBF" width="3.2" height="1"/>
	</g>
</g>
</svg>
