<!-- Generator: Adobe Illustrator 18.0.0, SVG Export Plug-In  -->
<svg version="1.1"
	 xmlns="http://www.w3.org/2000/svg" xmlns:xlink="http://www.w3.org/1999/xlink" xmlns:a="http://ns.adobe.com/AdobeSVGViewerExtensions/3.0/"
	 x="0px" y="0px" width="15px" height="12.8px" viewBox="0 0 15 12.8" enable-background="new 0 0 15 12.8" xml:space="preserve">
<defs>
</defs>
<path fill="#FFFFFF" d="M7.5,3.3C5.4,3.3,3.7,5,3.7,7.1s1.7,3.8,3.8,3.8c2.1,0,3.8-1.7,3.8-3.8S9.6,3.3,7.5,3.3z M9.6,9
	c-1,1.2-2.8,1.3-4,0.3c-1.2-1-1.3-2.8-0.3-4c1-1.2,2.8-1.3,4-0.3C10.5,6,10.6,7.8,9.6,9z M7.5,5.2c0.1,0,0.2,0.1,0.2,0.2
	S7.6,5.7,7.5,5.7c-0.8,0-1.4,0.6-1.4,1.4v0c0,0.1-0.1,0.2-0.2,0.2S5.6,7.2,5.6,7.1v0C5.6,6.1,6.5,5.2,7.5,5.2z M13.8,2.9l-2-0.3
	l-0.6-1.6C10.9,0.4,10.4,0,9.8,0H5.2C4.6,0,4.1,0.4,3.9,0.9L3.2,2.5l-2,0.3C0.5,3,0,3.6,0,4.3v7.1c0,0.8,0.6,1.4,1.4,1.4h12.2
	c0.8,0,1.4-0.6,1.4-1.4V4.3C15,3.6,14.5,3,13.8,2.9z M14.1,11.4c0,0.3-0.2,0.5-0.5,0.5H1.4c-0.3,0-0.5-0.2-0.5-0.5V4.3
	c0-0.2,0.2-0.4,0.4-0.5l2.6-0.4l0.8-2.1C4.8,1.1,5,0.9,5.2,0.9h4.7c0.2,0,0.4,0.1,0.4,0.3l0.8,2.1l2.6,0.4c0.2,0,0.4,0.2,0.4,0.5
	V11.4z"/>
</svg>
