<!-- Generator: Adobe Illustrator 18.0.0, SVG Export Plug-In  -->
<svg version="1.1"
	 xmlns="http://www.w3.org/2000/svg" xmlns:xlink="http://www.w3.org/1999/xlink" xmlns:a="http://ns.adobe.com/AdobeSVGViewerExtensions/3.0/"
	 x="0px" y="0px" width="233.7px" height="54.9px" viewBox="0 0 233.7 54.9" enable-background="new 0 0 233.7 54.9"
	 xml:space="preserve">
<defs>
</defs>
<g>
	<path fill="#FFFFFF" d="M11,52.3H9.8L1.3,39.7v12.7H0V37.5h1.3l8.5,12.7V37.5H11V52.3z"/>
	<path fill="#FFFFFF" d="M23,45.2h-6.9v6h8v1.1h-9.2V37.5H24v1.1h-7.9v5.6H23V45.2z"/>
	<path fill="#FFFFFF" d="M37.4,50.6c-0.4,0.6-1.1,1.1-2,1.4c-0.9,0.3-2,0.5-3.1,0.5c-1.2,0-2.2-0.3-3.1-0.8
		c-0.9-0.6-1.6-1.3-2.1-2.4s-0.7-2.2-0.8-3.5V44c0-2.1,0.5-3.7,1.6-4.9c1-1.2,2.4-1.8,4.2-1.8c1.5,0,2.8,0.4,3.7,1.2
		s1.5,1.8,1.7,3.2h-1.3c-0.2-1.1-0.6-1.9-1.3-2.5c-0.7-0.6-1.6-0.8-2.8-0.8c-1.4,0-2.5,0.5-3.3,1.5c-0.8,1-1.2,2.4-1.2,4.2v1.8
		c0,1.1,0.2,2.1,0.6,3c0.4,0.9,0.9,1.5,1.6,2c0.7,0.5,1.5,0.7,2.5,0.7c1.1,0,2-0.2,2.8-0.5c0.5-0.2,0.9-0.5,1.1-0.8v-3.8h-4v-1.1
		h5.2V50.6z"/>
	<path fill="#FFFFFF" d="M51.9,45.7c0,1.4-0.2,2.6-0.7,3.6s-1.1,1.8-2,2.4c-0.9,0.6-1.9,0.8-3,0.8c-1.7,0-3.1-0.6-4.2-1.9
		c-1.1-1.2-1.6-2.9-1.6-5v-1.5c0-1.4,0.2-2.5,0.7-3.6c0.5-1,1.2-1.8,2-2.4c0.9-0.6,1.9-0.8,3-0.8c1.1,0,2.1,0.3,3,0.8s1.5,1.3,2,2.3
		s0.7,2.2,0.7,3.5V45.7z M50.6,44.1c0-1.8-0.4-3.2-1.2-4.2s-1.9-1.5-3.3-1.5c-1.4,0-2.5,0.5-3.3,1.5c-0.8,1-1.2,2.4-1.2,4.3v1.5
		c0,1.8,0.4,3.2,1.2,4.2s1.9,1.5,3.3,1.5c1.4,0,2.5-0.5,3.3-1.5c0.8-1,1.2-2.4,1.2-4.2V44.1z"/>
	<path fill="#FFFFFF" d="M65.5,47.7c-0.2,1.6-0.7,2.8-1.7,3.6s-2.2,1.2-3.8,1.2c-1.1,0-2.1-0.3-2.9-0.8s-1.5-1.3-2-2.3
		s-0.7-2.2-0.7-3.5V44c0-1.3,0.2-2.5,0.7-3.5s1.1-1.8,2-2.4c0.9-0.6,1.9-0.8,3-0.8c1.6,0,2.8,0.4,3.8,1.3c0.9,0.9,1.5,2,1.6,3.6
		h-1.3c-0.3-2.5-1.7-3.8-4.1-3.8c-1.3,0-2.4,0.5-3.2,1.5c-0.8,1-1.2,2.4-1.2,4.2v1.8c0,1.7,0.4,3.1,1.2,4.1c0.8,1,1.8,1.5,3.2,1.5
		c1.3,0,2.3-0.3,3-0.9s1.1-1.6,1.2-2.8H65.5z"/>
	<path fill="#FFFFFF" d="M70.1,52.3h-1.3V37.5h1.3V52.3z"/>
	<path fill="#FFFFFF" d="M85.1,45.7c0,1.4-0.2,2.6-0.7,3.6s-1.1,1.8-2,2.4c-0.9,0.6-1.9,0.8-3,0.8c-1.7,0-3.1-0.6-4.2-1.9
		c-1.1-1.2-1.6-2.9-1.6-5v-1.5c0-1.4,0.2-2.5,0.7-3.6c0.5-1,1.2-1.8,2-2.4c0.9-0.6,1.9-0.8,3-0.8c1.1,0,2.1,0.3,3,0.8s1.5,1.3,2,2.3
		s0.7,2.2,0.7,3.5V45.7z M83.8,44.1c0-1.8-0.4-3.2-1.2-4.2s-1.9-1.5-3.3-1.5c-1.4,0-2.5,0.5-3.3,1.5c-0.8,1-1.2,2.4-1.2,4.3v1.5
		c0,1.8,0.4,3.2,1.2,4.2s1.9,1.5,3.3,1.5c1.4,0,2.5-0.5,3.3-1.5c0.8-1,1.2-2.4,1.2-4.2V44.1z"/>
	<path fill="#FFFFFF" d="M96.6,48.7c0-0.8-0.3-1.5-0.9-1.9c-0.6-0.5-1.6-0.9-3.2-1.4c-1.5-0.4-2.7-0.9-3.4-1.4
		c-1-0.7-1.5-1.7-1.5-2.8c0-1.1,0.5-2.1,1.4-2.8c0.9-0.7,2.1-1.1,3.6-1.1c1,0,1.9,0.2,2.6,0.6c0.8,0.4,1.4,0.9,1.8,1.6
		s0.6,1.4,0.6,2.3h-1.3c0-1-0.3-1.8-1-2.4c-0.7-0.6-1.6-0.9-2.8-0.9c-1.1,0-2,0.3-2.7,0.8c-0.7,0.5-1,1.2-1,2c0,0.8,0.3,1.4,0.9,1.8
		c0.6,0.5,1.6,0.9,2.9,1.3s2.3,0.7,3,1.1s1.2,0.9,1.5,1.4c0.3,0.5,0.5,1.2,0.5,1.9c0,1.2-0.5,2.1-1.4,2.8c-0.9,0.7-2.2,1.1-3.7,1.1
		c-1,0-2-0.2-2.9-0.6c-0.9-0.4-1.5-0.9-2-1.6c-0.5-0.7-0.7-1.4-0.7-2.3h1.3c0,1,0.4,1.9,1.2,2.5c0.8,0.6,1.8,0.9,3.1,0.9
		c1.2,0,2.1-0.3,2.8-0.8C96.3,50.2,96.6,49.5,96.6,48.7z"/>
	<path fill="#FFFFFF" d="M113.8,45.4h-6.9v6.9h-1.3V37.5h9.2v1.1h-7.9v5.8h6.9V45.4z"/>
	<path fill="#FFFFFF" d="M122.9,46.2h-4.3v6.2h-1.3V37.5h4.8c1.6,0,2.8,0.4,3.7,1.1c0.9,0.8,1.3,1.8,1.3,3.2c0,0.9-0.3,1.8-0.8,2.5
		c-0.6,0.7-1.3,1.2-2.2,1.5l3.7,6.3v0.1h-1.3L122.9,46.2z M118.6,45.1h3.8c1.1,0,1.9-0.3,2.5-0.9c0.6-0.6,1-1.4,1-2.3
		c0-1-0.3-1.9-1-2.4s-1.6-0.9-2.8-0.9h-3.5V45.1z"/>
	<path fill="#FFFFFF" d="M138.6,48.2h-6.7l-1.5,4.2H129l5.6-14.8h1.2l5.6,14.8h-1.3L138.6,48.2z M132.3,47.1h5.9l-3-8.1L132.3,47.1z
		"/>
	<path fill="#FFFFFF" d="M154.7,52.3h-1.3l-8.5-12.7v12.7h-1.3V37.5h1.3l8.5,12.7V37.5h1.2V52.3z"/>
	<path fill="#FFFFFF" d="M169.4,45.7c0,1.4-0.2,2.6-0.7,3.7c-0.5,1-1.2,1.8-2.1,2.4l2.7,2.4l-0.9,0.8l-3-2.6
		c-0.6,0.2-1.1,0.2-1.7,0.2c-1.1,0-2.1-0.3-3-0.8c-0.9-0.6-1.6-1.3-2-2.4c-0.5-1-0.7-2.2-0.7-3.5v-1.7c0-1.4,0.2-2.5,0.7-3.6
		c0.5-1,1.2-1.8,2-2.4c0.9-0.6,1.9-0.8,3-0.8c1.2,0,2.2,0.3,3,0.8c0.9,0.6,1.6,1.4,2,2.4s0.7,2.2,0.7,3.6V45.7z M168.1,44.1
		c0-1.8-0.4-3.2-1.2-4.2s-1.9-1.5-3.3-1.5c-1.4,0-2.5,0.5-3.3,1.5c-0.8,1-1.2,2.4-1.2,4.3v1.5c0,1.8,0.4,3.2,1.2,4.2
		c0.8,1,1.9,1.5,3.3,1.5c1.4,0,2.5-0.5,3.3-1.5c0.8-1,1.2-2.4,1.2-4.2V44.1z"/>
	<path fill="#FFFFFF" d="M182.8,37.5v10.1c0,1-0.2,1.9-0.7,2.6s-1,1.3-1.8,1.7c-0.8,0.4-1.7,0.6-2.7,0.6c-1.6,0-2.8-0.4-3.8-1.3
		c-0.9-0.9-1.4-2-1.5-3.5V37.5h1.2v10c0,1.2,0.4,2.2,1.1,2.9c0.7,0.7,1.7,1,2.9,1s2.2-0.3,2.9-1c0.7-0.7,1.1-1.7,1.1-2.9v-10H182.8z
		"/>
	<path fill="#FFFFFF" d="M187.8,52.3h-1.3V37.5h1.3V52.3z"/>
	<path fill="#FFFFFF" d="M202.3,47.7c-0.2,1.6-0.7,2.8-1.7,3.6c-0.9,0.8-2.2,1.2-3.8,1.2c-1.1,0-2.1-0.3-2.9-0.8s-1.5-1.3-2-2.3
		s-0.7-2.2-0.7-3.5V44c0-1.3,0.2-2.5,0.7-3.5c0.5-1,1.1-1.8,2-2.4s1.9-0.8,3-0.8c1.6,0,2.8,0.4,3.8,1.3c0.9,0.9,1.5,2,1.6,3.6H201
		c-0.3-2.5-1.7-3.8-4.1-3.8c-1.3,0-2.4,0.5-3.2,1.5c-0.8,1-1.2,2.4-1.2,4.2v1.8c0,1.7,0.4,3.1,1.2,4.1c0.8,1,1.8,1.5,3.2,1.5
		c1.3,0,2.3-0.3,3-0.9c0.7-0.6,1.1-1.6,1.2-2.8H202.3z"/>
	<path fill="#FFFFFF" d="M206.9,52.3h-1.3V37.5h1.3V52.3z"/>
	<path fill="#FFFFFF" d="M219.1,48.2h-6.7l-1.5,4.2h-1.3l5.6-14.8h1.2l5.6,14.8h-1.3L219.1,48.2z M212.7,47.1h5.9l-3-8.1L212.7,47.1
		z"/>
	<path fill="#FFFFFF" d="M232.5,48.7c0-0.8-0.3-1.5-0.9-1.9c-0.6-0.5-1.6-0.9-3.2-1.4c-1.5-0.4-2.7-0.9-3.4-1.4
		c-1-0.7-1.5-1.7-1.5-2.8c0-1.1,0.5-2.1,1.4-2.8c0.9-0.7,2.1-1.1,3.6-1.1c1,0,1.9,0.2,2.6,0.6c0.8,0.4,1.4,0.9,1.8,1.6
		s0.6,1.4,0.6,2.3h-1.3c0-1-0.3-1.8-1-2.4c-0.7-0.6-1.6-0.9-2.8-0.9c-1.1,0-2,0.3-2.7,0.8c-0.7,0.5-1,1.2-1,2c0,0.8,0.3,1.4,0.9,1.8
		c0.6,0.5,1.6,0.9,2.9,1.3s2.3,0.7,3,1.1s1.2,0.9,1.5,1.4c0.3,0.5,0.5,1.2,0.5,1.9c0,1.2-0.5,2.1-1.4,2.8c-0.9,0.7-2.2,1.1-3.7,1.1
		c-1,0-2-0.2-2.9-0.6c-0.9-0.4-1.5-0.9-2-1.6c-0.5-0.7-0.7-1.4-0.7-2.3h1.3c0,1,0.4,1.9,1.2,2.5c0.8,0.6,1.8,0.9,3.1,0.9
		c1.2,0,2.1-0.3,2.8-0.8C232.1,50.2,232.5,49.5,232.5,48.7z"/>
</g>
<g>
	<path fill="#E0F0F2" d="M206.2,15.8l-3,4.4l-7.5,11.1H192l10.5-15.5L192,0.3h3.7l8.7,12.7 M206.2,15.8"/>
</g>
<g>
	<path fill="#A8D7DE" d="M212.2,15.8"/>
</g>
<g>
	<g>
		<path fill="#FFFFFF" d="M17.4,14.1v2.2H2.2v11.9h15.2v2.2H0V0h17.3v2.2H2.2v11.9H17.4z"/>
		<path fill="#FFFFFF" d="M21.7,0h3.7l9.3,28.2L44,0h3.7v30.3h-2.2V2.2l-9.1,28.2H33L23.9,2.2v28.2h-2.2V0z"/>
		<path fill="#FFFFFF" d="M54.2,16.3v14.1H52V0h13c4.3,0,6.5,2.2,6.5,6.5v3.3c0,4.3-2.2,6.5-6.5,6.5H54.2z M54.2,2.2v11.9H65
			c2.9,0,4.3-1.4,4.3-4.3V6.5c0-2.9-1.4-4.3-4.3-4.3H54.2z"/>
		<path fill="#FFFFFF" d="M88.2,16.3H78v14.1h-2.2V0h13c4.3,0,6.5,2.2,6.5,6.5v3.3c0,3.8-1.7,6-5.1,6.4l5.1,14.2h-2.2L88.2,16.3z
			 M78,2.2v11.9h10.8c2.9,0,4.3-1.4,4.3-4.3V6.5c0-2.9-1.4-4.3-4.3-4.3H78z"/>
		<path fill="#FFFFFF" d="M117.1,14.1v2.2h-15.2v11.9h15.2v2.2H99.7V0h17.3v2.2h-15.2v11.9H117.1z"/>
		<path fill="#FFFFFF" d="M123.6,0l15.2,26V0h2.2v30.3h-2.2l-15.2-26v26h-2.2V0H123.6z"/>
		<path fill="#FFFFFF" d="M158.2,0c4.3,0,6.5,2.2,6.5,6.5v17.3c0,4.3-2.2,6.5-6.5,6.5h-13V0H158.2z M162.6,6.5
			c0-2.9-1.4-4.3-4.3-4.3h-10.8v26h10.8c2.9,0,4.3-1.4,4.3-4.3V6.5z"/>
		<path fill="#FFFFFF" d="M189.7,23.8c0,4.3-2.2,6.5-6.5,6.5h-7.6c-4.3,0-6.5-2.2-6.5-6.5V6.5c0-4.3,2.2-6.5,6.5-6.5h7.6
			c4.3,0,6.5,2.2,6.5,6.5V23.8z M171.2,23.8c0,2.9,1.4,4.3,4.3,4.3h7.6c2.9,0,4.3-1.4,4.3-4.3V6.5c0-2.9-1.4-4.3-4.3-4.3h-7.6
			c-2.9,0-4.3,1.4-4.3,4.3V23.8z"/>
	</g>
	<g>
		<path fill="#28A9CC" d="M210.3,13L219,0.3h3.7l-10.5,15.5l10.5,15.5H219l-8.7-12.7 M208.5,15.8"/>
	</g>
</g>
<g>
	<path fill="#ACDAE5" d="M212.2,15.8l-3,4.4l-7.5,11.1H198l10.5-15.5L198,0.3h3.7l8.7,12.7 M212.2,15.8"/>
</g>
</svg>
