<?xml version="1.0" encoding="utf-8"?>
<!-- Generator: Adobe Illustrator 18.0.0, SVG Export Plug-In . SVG Version: 6.00 Build 0)  -->
<!DOCTYPE svg PUBLIC "-//W3C//DTD SVG 1.1//EN" "http://www.w3.org/Graphics/SVG/1.1/DTD/svg11.dtd">
<svg version="1.1" width="13.3px" height="14.1px" id="Layer_1" xmlns="http://www.w3.org/2000/svg" xmlns:xlink="http://www.w3.org/1999/xlink" x="0px" y="0px"
	 viewBox="0 0 15 14.3" enable-background="new 0 0 15 14.3" xml:space="preserve">
<path fill="#FFD008" d="M15,5.4L9.8,4.7L7.5,0L5.2,4.7L0,5.4l3.8,3.7l-0.9,5.2l4.6-2.4l4.6,2.4l-0.9-5.2L15,5.4z M15,5.4L9.8,4.7
	L7.5,0L5.2,4.7L0,5.4l3.8,3.7l-0.9,5.2l4.6-2.4l4.6,2.4l-0.9-5.2L15,5.4z M7.5,10.7l-3.3,1.7l0.6-3.6L2.2,6.2l3.7-0.5l1.6-3.3
	l1.6,3.3l3.7,0.5l-2.6,2.6l0.6,3.6L7.5,10.7L7.5,10.7z"/>
</svg>
