<!-- Generator: Adobe Illustrator 18.0.0, SVG Export Plug-In  -->
<svg version="1.1"
	 xmlns="http://www.w3.org/2000/svg" xmlns:xlink="http://www.w3.org/1999/xlink" xmlns:a="http://ns.adobe.com/AdobeSVGViewerExtensions/3.0/"
	 x="0px" y="0px" width="15.1px" height="15.1px" viewBox="0 0 15.1 15.1" enable-background="new 0 0 15.1 15.1"
	 xml:space="preserve">
<defs>
</defs>
<g>
	<polygon fill="#FFFFFF" points="2.9,0.8 1.1,1.5 1.1,10 3.1,10.7 3.1,14 7.5,10.7 13,10.4 14.5,9.3 14.2,1.2 12.5,0.3 	"/>
	<path fill="#F76A00" d="M4.3,5.2c0.5,0,1,0.4,1,1s-0.4,1-1,1s-1-0.4-1-1S3.7,5.2,4.3,5.2z M7.5,5.2c0.5,0,1,0.4,1,1s-0.4,1-1,1
		s-1-0.4-1-1S7,5.2,7.5,5.2z M10.8,5.2c0.5,0,1,0.4,1,1s-0.4,1-1,1s-1-0.4-1-1S10.3,5.2,10.8,5.2z M13.8,9.2c0,0.4-0.3,0.7-0.7,0.7
		H7.2l-3.9,3.3V9.8H2c-0.4,0-0.7-0.3-0.7-0.7V2c0-0.4,0.3-0.7,0.7-0.7h11.1c0.4,0,0.7,0.3,0.7,0.7V9.2z M13.1,0H2C0.9,0,0,0.9,0,2
		v7.9c0,1.1,1.3,1.3,2,1.3v3.9l5.9-3.9h5.2c1.1,0,2-0.9,2-2V2C15.1,0.9,14.2,0,13.1,0z"/>
</g>
</svg>
