<!-- Generator: Adobe Illustrator 18.0.0, SVG Export Plug-In  -->
<svg version="1.1"
	 xmlns="http://www.w3.org/2000/svg" xmlns:xlink="http://www.w3.org/1999/xlink" xmlns:a="http://ns.adobe.com/AdobeSVGViewerExtensions/3.0/"
	 x="0px" y="0px" width="13.3px" height="14.1px" viewBox="0 0 13.3 14.1" enable-background="new 0 0 13.3 14.1"
	 xml:space="preserve">
<defs>
</defs>
<g>
	<path fill="#15FFE3" d="M11.9,0H1.3C0.6,0,0,0.6,0,1.3v11.5c0,0.7,0.6,1.3,1.3,1.3h10.6c0.7,0,1.3-0.6,1.3-1.3V1.3
		C13.3,0.6,12.7,0,11.9,0z M11.5,12.4H1.8V1.8h9.7V12.4z M3.5,8h6.2v0.9H3.5V8z M3.5,9.7h6.2v0.9H3.5V9.7z M4.4,4
		c0-0.7,0.6-1.3,1.3-1.3S7.1,3.2,7.1,4S6.5,5.3,5.7,5.3S4.4,4.7,4.4,4z M6.6,5.3H4.9c-0.7,0-1.3,0.4-1.3,0.9v0.9H8V6.2
		C8,5.7,7.4,5.3,6.6,5.3z"/>
	<circle fill="#EDEDED" cx="5.7" cy="4" r="1.3"/>
	<path fill="#EDEDED" d="M6.6,5.3H4.9c-0.7,0-1.3,0.4-1.3,0.9v0.9H8V6.2C8,5.7,7.4,5.3,6.6,5.3z"/>
	<rect x="3.5" y="8" fill="#BFBFBF" width="6.2" height="0.9"/>
	<rect x="3.5" y="9.7" fill="#BFBFBF" width="6.2" height="0.9"/>
</g>
</svg>
