<!-- Generator: Adobe Illustrator 18.0.0, SVG Export Plug-In  -->
<svg version="1.1"
	 xmlns="http://www.w3.org/2000/svg" xmlns:xlink="http://www.w3.org/1999/xlink" xmlns:a="http://ns.adobe.com/AdobeSVGViewerExtensions/3.0/"
	 x="0px" y="0px" width="234.7px" height="234.7px" viewBox="0 0 234.7 234.7" enable-background="new 0 0 234.7 234.7"
	 xml:space="preserve">
<defs>
</defs>
<circle fill="#383838" cx="117.3" cy="117.3" r="117.3"/>
<path fill="#F4F0F0" d="M175.5,142.3c-9.3-12.1-21.2-18.4-41.5-20.4c-3.6-0.7-6.4-4-6.4-7.8c0-2.8,9-11.2,9-11.3
	c9.3-9.6,14.3-25.3,14.3-37.3c0-18.7-15-33.8-33.6-33.8S83.8,46.8,83.8,65.5c0,12.1,4.9,27.8,14.3,37.5c0,0,9,8.3,9,11.1
	c0,4.1-3.1,7.5-7,7.9c-19.8,2.1-31.6,8.3-40.8,20.3c-2.7,3.5-4.1,10.4-4.2,14.1c0,1,0,16,0,16c0,7.1,5.7,12.8,12.8,12.8h99.2
	c7.1,0,12.8-5.7,12.8-12.8c0,0,0-15,0-16C179.6,152.7,178.2,145.8,175.5,142.3z"/>
</svg>
