<!-- Generator: Adobe Illustrator 18.0.0, SVG Export Plug-In  -->
<svg version="1.1"
	 xmlns="http://www.w3.org/2000/svg" xmlns:xlink="http://www.w3.org/1999/xlink" xmlns:a="http://ns.adobe.com/AdobeSVGViewerExtensions/3.0/"
	 x="0px" y="0px" width="16px" height="16px" viewBox="0 0 16 16" enable-background="new 0 0 16 16" xml:space="preserve">
<defs>
</defs>
<path fill="#AAAAAA" d="M15.6,15.6c-0.6,0.6-1.5,0.6-2.1,0l-2.7-2.7C9.7,13.6,8.4,14,7,14c-3.9,0-7-3.1-7-7s3.1-7,7-7
	c3.9,0,7,3.1,7,7c0,1.4-0.4,2.7-1.1,3.8l2.7,2.7C16.1,14,16.1,15,15.6,15.6z M7,2C4.2,2,2,4.2,2,7s2.2,5,5,5s5-2.2,5-5S9.8,2,7,2z"
	/>
</svg>
