<!-- Generator: Adobe Illustrator 18.0.0, SVG Export Plug-In  -->
<svg version="1.1"
	 xmlns="http://www.w3.org/2000/svg" xmlns:xlink="http://www.w3.org/1999/xlink" xmlns:a="http://ns.adobe.com/AdobeSVGViewerExtensions/3.0/"
	 x="0px" y="0px" width="70.5px" height="70.5px" viewBox="0 0 70.5 70.5" enable-background="new 0 0 70.5 70.5"
	 xml:space="preserve">
<defs>
</defs>
<path fill="#25A8CC" d="M69.5,0.4C69.1,0.1,68.7,0,68.3,0c-0.4,0-0.9,0.1-1.2,0.4L1,44.4c-0.7,0.5-1.1,1.2-1,2.1
	c0.1,0.8,0.6,1.5,1.4,1.8l17.2,6.9l8.1,14.2c0.4,0.7,1.1,1.1,1.9,1.1c0,0,0,0,0,0c0.8,0,1.5-0.4,1.9-1.1l4.6-7.6l21.3,8.5
	c0.3,0.1,0.5,0.2,0.8,0.2c0.4,0,0.7-0.1,1.1-0.3c0.6-0.3,1-0.9,1.1-1.6l11-66.1C70.6,1.7,70.2,0.8,69.5,0.4z M6.9,45.7l51-34
	L20.8,51.4c-0.2-0.1-0.4-0.3-0.6-0.4L6.9,45.7z M22.4,53C22.4,53,22.4,53,22.4,53L64.1,8.3L28.6,63.7L22.4,53z M55.5,65.2l-18.8-7.5
	c-0.4-0.2-0.9-0.2-1.4-0.3l29-44.9L55.5,65.2z"/>
</svg>
