<!-- Generator: Adobe Illustrator 18.0.0, SVG Export Plug-In  -->
<svg version="1.1"
	 xmlns="http://www.w3.org/2000/svg" xmlns:xlink="http://www.w3.org/1999/xlink" xmlns:a="http://ns.adobe.com/AdobeSVGViewerExtensions/3.0/"
	 x="0px" y="0px" width="672.3px" height="94.3px" viewBox="0 0 672.3 94.3" enable-background="new 0 0 672.3 94.3"
	 xml:space="preserve">
<defs>
</defs>
<g>
	<g>
		<path fill="#DFF0F2" d="M622.6,47.6l-9.1,13.3l-22.7,33.4h-11.2l31.8-46.7L579.6,0.9h11.2L617,39.4 M622.6,47.6"/>
	</g>
	<g>
		<path fill="#A6D5DD" d="M640.5,47.6"/>
	</g>
	<g>
		<g>
			<path fill="#434343" d="M52.3,42.5v6.5H6.5v36h45.8v6.5H0V0h52.3v6.5H6.5v36H52.3z"/>
			<path fill="#434343" d="M65.4,0h11.1l28.1,85.1L132.8,0H144v91.6h-6.5V6.5l-27.5,85.1H99.5L72,6.5v85.1h-6.5V0z"/>
			<path fill="#434343" d="M163.6,49.1v42.5H157V0h39.3c13.1,0,19.6,6.5,19.6,19.6v9.8c0,13.1-6.5,19.6-19.6,19.6H163.6z M163.6,6.5
				v36h32.7c8.7,0,13.1-4.4,13.1-13.1v-9.8c0-8.7-4.4-13.1-13.1-13.1H163.6z"/>
			<path fill="#434343" d="M266.2,49.1h-30.6v42.5H229V0h39.3c13.1,0,19.6,6.5,19.6,19.6v9.8c0,11.6-5.1,18-15.3,19.4l15.3,42.8
				h-6.5L266.2,49.1z M235.6,6.5v36h32.7c8.7,0,13.1-4.4,13.1-13.1v-9.8c0-8.7-4.4-13.1-13.1-13.1H235.6z"/>
			<path fill="#434343" d="M353.4,42.5v6.5h-45.8v36h45.8v6.5H301V0h52.3v6.5h-45.8v36H353.4z"/>
			<path fill="#434343" d="M373,0l45.8,78.5V0h6.5v91.6h-6.5L373,13.1v78.5h-6.5V0H373z"/>
			<path fill="#434343" d="M477.7,0c13.1,0,19.6,6.5,19.6,19.6V72c0,13.1-6.5,19.6-19.6,19.6h-39.3V0H477.7z M490.8,19.6
				c0-8.7-4.4-13.1-13.1-13.1H445v78.5h32.7c8.7,0,13.1-4.4,13.1-13.1V19.6z"/>
			<path fill="#434343" d="M572.6,72c0,13.1-6.5,19.6-19.6,19.6H530c-13.1,0-19.6-6.5-19.6-19.6V19.6C510.4,6.5,516.9,0,530,0h22.9
				c13.1,0,19.6,6.5,19.6,19.6V72z M516.9,72c0,8.7,4.4,13.1,13.1,13.1h22.9c8.7,0,13.1-4.4,13.1-13.1V19.6
				c0-8.7-4.4-13.1-13.1-13.1H530c-8.7,0-13.1,4.4-13.1,13.1V72z"/>
		</g>
		<g>
			<path fill="#25A8CC" d="M634.9,39.4l26.1-38.5h11.2l-31.8,46.7l31.8,46.7h-11.2l-26.1-38.5 M629.3,47.6"/>
		</g>
	</g>
	<g>
		<path fill="#AADAE5" d="M640.5,47.6l-9.1,13.3l-22.7,33.4h-11.2l31.8-46.7L597.6,0.9h11.2l26.1,38.5 M640.5,47.6"/>
	</g>
</g>
</svg>
