<!-- Generator: Adobe Illustrator 18.0.0, SVG Export Plug-In  -->
<svg version="1.1"
	 xmlns="http://www.w3.org/2000/svg" xmlns:xlink="http://www.w3.org/1999/xlink" xmlns:a="http://ns.adobe.com/AdobeSVGViewerExtensions/3.0/"
	 x="0px" y="0px" width="146.4px" height="20.5px" viewBox="0 0 146.4 20.5" enable-background="new 0 0 146.4 20.5"
	 xml:space="preserve">
<defs>
</defs>
<g>
	<g>
		<path fill="#FFFFFF" d="M11.4,9.3v1.4h-10v7.8h10V20H0V0h11.4v1.4h-10v7.8H11.4z"/>
		<path fill="#FFFFFF" d="M14.3,0h2.4l6.1,18.5L28.9,0h2.4v20h-1.4V1.4l-6,18.5h-2.3l-6-18.5V20h-1.4V0z"/>
		<path fill="#FFFFFF" d="M35.6,10.7V20h-1.4V0h8.6C45.6,0,47,1.4,47,4.3v2.1c0,2.9-1.4,4.3-4.3,4.3H35.6z M35.6,1.4v7.8h7.1
			c1.9,0,2.9-0.9,2.9-2.9V4.3c0-1.9-1-2.9-2.9-2.9H35.6z"/>
		<path fill="#FFFFFF" d="M58,10.7h-6.7V20h-1.4V0h8.6c2.9,0,4.3,1.4,4.3,4.3v2.1c0,2.5-1.1,3.9-3.3,4.2l3.3,9.3h-1.4L58,10.7z
			 M51.3,1.4v7.8h7.1c1.9,0,2.9-0.9,2.9-2.9V4.3c0-1.9-1-2.9-2.9-2.9H51.3z"/>
		<path fill="#FFFFFF" d="M77,9.3v1.4H67v7.8h10V20H65.6V0H77v1.4H67v7.8H77z"/>
		<path fill="#FFFFFF" d="M81.2,0l10,17.1V0h1.4v20h-1.4l-10-17.1V20h-1.4V0H81.2z"/>
		<path fill="#FFFFFF" d="M104,0c2.9,0,4.3,1.4,4.3,4.3v11.4c0,2.9-1.4,4.3-4.3,4.3h-8.6V0H104z M106.9,4.3c0-1.9-1-2.9-2.9-2.9
			h-7.1v17.1h7.1c1.9,0,2.9-0.9,2.9-2.9V4.3z"/>
		<path fill="#FFFFFF" d="M124.7,15.7c0,2.9-1.4,4.3-4.3,4.3h-5c-2.9,0-4.3-1.4-4.3-4.3V4.3c0-2.9,1.4-4.3,4.3-4.3h5
			c2.9,0,4.3,1.4,4.3,4.3V15.7z M112.6,15.7c0,1.9,1,2.9,2.9,2.9h5c1.9,0,2.9-0.9,2.9-2.9V4.3c0-1.9-1-2.9-2.9-2.9h-5
			c-1.9,0-2.9,0.9-2.9,2.9V15.7z"/>
	</g>
	<g>
		<g>
			<path fill="#DFF0F2" d="M135.6,10.4l-2,2.9l-4.9,7.3h-2.4l6.9-10.2l-6.9-10.2h2.4l5.7,8.4 M135.6,10.4"/>
		</g>
	</g>
	<g>
		<g>
			<path fill="#A6D5DD" d="M139.5,10.4"/>
		</g>
	</g>
	<g>
		<g>
			<path fill="#25A8CC" d="M138.3,8.6l5.7-8.4h2.4l-6.9,10.2l6.9,10.2H144l-5.7-8.4 M137.1,10.4"/>
		</g>
	</g>
	<g>
		<g>
			<path fill="#AADAE5" d="M139.5,10.4l-2,2.9l-4.9,7.3h-2.4l6.9-10.2l-6.9-10.2h2.4l5.7,8.4 M139.5,10.4"/>
		</g>
	</g>
</g>
</svg>
